<?xml version="1.0" encoding="UTF-8"?>
<svg xmlns="http://www.w3.org/2000/svg" xmlns:xlink="http://www.w3.org/1999/xlink" width="324pt" height="162pt" viewBox="0 0 324 162" version="1.1">
<g id="surface1">
<path style=" stroke:none;fill-rule:evenodd;fill:rgb(100%,82.351685%,30.979919%);fill-opacity:1;" d="M 96.03125 76.195313 C 96.03125 89.550781 85.207031 100.378906 71.851563 100.378906 C 58.496094 100.378906 47.667969 89.550781 47.667969 76.195313 C 47.667969 62.84375 58.496094 52.015625 71.851563 52.015625 C 85.207031 52.015625 96.03125 62.84375 96.03125 76.195313 "/>
<path style=" stroke:none;fill-rule:evenodd;fill:rgb(94.508362%,36.077881%,13.33313%);fill-opacity:1;" d="M 47.667969 76.171875 C 47.667969 69.710938 50.183594 63.640625 54.753906 59.070313 C 59.320313 54.503906 65.394531 51.988281 71.851563 51.988281 C 78.308594 51.988281 84.382813 54.503906 88.949219 59.070313 C 93.515625 63.640625 96.03125 69.710938 96.03125 76.171875 C 96.03125 89.503906 85.183594 100.351563 71.851563 100.351563 C 65.394531 100.351563 59.320313 97.835938 54.753906 93.269531 C 50.183594 88.703125 47.667969 82.628906 47.667969 76.171875 Z M 71.851563 101.511719 C 78.617188 101.511719 84.980469 98.875 89.769531 94.089844 C 94.554688 89.300781 97.191406 82.9375 97.191406 76.171875 C 97.191406 69.402344 94.554688 63.039063 89.769531 58.253906 C 84.980469 53.46875 78.617188 50.832031 71.851563 50.832031 C 57.878906 50.832031 46.511719 62.199219 46.511719 76.171875 C 46.511719 82.9375 49.148438 89.300781 53.933594 94.089844 C 58.71875 98.875 65.082031 101.511719 71.851563 101.511719 "/>
<path style=" stroke:none;fill-rule:evenodd;fill:rgb(25.881958%,58.430481%,22.3526%);fill-opacity:1;" d="M 84.421875 64.636719 L 72.164063 64.636719 C 71.210938 64.636719 70.039063 65.316406 69.566406 66.144531 L 64.191406 75.570313 L 65.585938 77.796875 L 67.105469 75.128906 C 67.105469 75.128906 68.042969 72.933594 70.835938 72.933594 C 73.628906 72.933594 79.832031 72.933594 79.832031 72.933594 C 80.785156 72.933594 81.957031 72.253906 82.429688 71.425781 L 86.964844 63.480469 C 86.964844 63.480469 85.378906 64.636719 84.421875 64.636719 "/>
<path style=" stroke:none;fill-rule:evenodd;fill:rgb(25.881958%,58.430481%,22.3526%);fill-opacity:1;" d="M 69.394531 84.980469 C 70.464844 84.980469 82.75 84.980469 82.75 84.980469 C 83.703125 84.980469 84.871094 84.289063 85.34375 83.460938 L 91.34375 72.933594 C 91.34375 72.933594 89.757813 74.089844 88.800781 74.089844 L 73 74.089844 C 72.046875 74.089844 70.875 74.769531 70.402344 75.597656 C 70.402344 75.597656 65.824219 83.539063 65.152344 84.71875 C 64.480469 85.898438 63.117188 86.21875 62.585938 86.214844 C 60.449219 86.203125 58.390625 84.898438 58.390625 82.367188 C 58.390625 78.53125 64.277344 79.6875 64.277344 79.6875 L 61.1875 74.765625 C 61.1875 74.765625 54.53125 74.953125 54.53125 82.195313 C 54.53125 89.527344 62.011719 90.296875 62.011719 90.296875 L 87.78125 90.296875 L 90.152344 86.148438 C 90.152344 86.148438 69.734375 86.148438 68.730469 86.148438 C 68.011719 86.148438 67.84375 84.980469 69.394531 84.980469 "/>
<path style=" stroke:none;fill-rule:nonzero;fill:rgb(22.744751%,45.097351%,72.547913%);fill-opacity:1;" d="M 121.234375 72.371094 C 120.054688 77.992188 117.886719 81.039063 111.796875 81.039063 C 107.984375 81.039063 104.089844 79.503906 104.089844 75.222656 C 104.089844 74.234375 104.308594 73.277344 104.5 72.316406 L 106.886719 60.984375 L 111.195313 60.984375 L 108.808594 72.316406 C 108.671875 72.945313 108.394531 74.152344 108.394531 74.785156 C 108.394531 75.773438 109.109375 77.417969 112.070313 77.417969 C 115.585938 77.417969 116.242188 75.550781 116.871094 72.589844 L 119.3125 60.984375 L 123.621094 60.984375 L 121.234375 72.371094 "/>
<path style=" stroke:none;fill-rule:nonzero;fill:rgb(22.744751%,45.097351%,72.547913%);fill-opacity:1;" d="M 122.9375 77.007813 L 136.019531 64.605469 L 125.980469 64.605469 L 126.777344 60.984375 L 142.246094 60.984375 L 141.535156 64.441406 L 128.339844 76.953125 L 139.394531 76.953125 L 138.683594 80.574219 L 122.195313 80.574219 L 122.9375 77.007813 "/>
<path style=" stroke:none;fill-rule:nonzero;fill:rgb(22.744751%,45.097351%,72.547913%);fill-opacity:1;" d="M 147.652344 68.914063 L 152.535156 68.914063 C 154.097656 68.914063 155.441406 68.035156 155.441406 66.335938 C 155.441406 64.851563 154.5625 64.332031 153.164063 64.332031 L 148.613281 64.332031 Z M 145.894531 77.226563 L 151.300781 77.226563 C 153.246094 77.226563 154.675781 76.15625 154.675781 74.070313 C 154.675781 72.015625 152.835938 71.847656 151.273438 71.847656 L 147.046875 71.847656 Z M 145.15625 60.984375 L 153.386719 60.984375 C 157.308594 60.984375 159.75 61.835938 159.75 65.566406 C 159.75 67.789063 158.378906 69.847656 156.074219 70.121094 L 156.074219 70.175781 C 157.9375 70.667969 158.980469 72.261719 158.980469 74.152344 C 158.980469 78.40625 155.414063 80.574219 151.492188 80.574219 L 141.039063 80.574219 L 145.15625 60.984375 "/>
<path style=" stroke:none;fill-rule:nonzero;fill:rgb(22.744751%,45.097351%,72.547913%);fill-opacity:1;" d="M 164.960938 60.984375 L 179.910156 60.984375 L 179.171875 64.605469 L 168.527344 64.605469 L 167.648438 68.804688 L 177.496094 68.804688 L 176.785156 72.152344 L 166.9375 72.152344 L 165.921875 76.953125 L 176.730469 76.953125 L 175.960938 80.574219 L 160.847656 80.574219 L 164.960938 60.984375 "/>
<path style=" stroke:none;fill-rule:nonzero;fill:rgb(22.744751%,45.097351%,72.547913%);fill-opacity:1;" d="M 183.230469 60.984375 L 187.535156 60.984375 L 185.835938 69.1875 L 185.890625 69.1875 L 194.777344 60.984375 L 200.484375 60.984375 L 191.074219 69.050781 L 197.085938 80.574219 L 192.230469 80.574219 L 187.757813 71.765625 L 184.765625 74.371094 L 183.476563 80.574219 L 179.144531 80.574219 L 183.230469 60.984375 "/>
<path style=" stroke:none;fill-rule:nonzero;fill:rgb(22.744751%,45.097351%,72.547913%);fill-opacity:1;" d="M 203.089844 60.984375 L 207.425781 60.984375 L 203.28125 80.574219 L 198.949219 80.574219 L 203.089844 60.984375 "/>
<path style=" stroke:none;fill-rule:nonzero;fill:rgb(22.744751%,45.097351%,72.547913%);fill-opacity:1;" d="M 211.402344 74.070313 C 211.265625 76.84375 213.15625 77.691406 215.628906 77.691406 C 217.355469 77.691406 219.355469 76.867188 219.355469 74.921875 C 219.355469 73 216.835938 72.617188 214.394531 71.875 C 211.925781 71.109375 209.453125 69.984375 209.453125 66.609375 C 209.453125 62.246094 213.433594 60.519531 217.21875 60.519531 C 221.222656 60.519531 224.570313 62.300781 224.570313 66.828125 L 220.480469 66.828125 C 220.5625 64.636719 218.972656 63.867188 216.972656 63.867188 C 215.324219 63.867188 213.542969 64.496094 213.542969 66.308594 C 213.542969 68.253906 216.859375 68.75 218.203125 69.078125 C 221.277344 69.875 223.445313 71.054688 223.445313 74.566406 C 223.445313 79.257813 219.191406 81.039063 215.460938 81.039063 C 210.058594 81.039063 207.3125 78.789063 207.3125 74.070313 L 211.402344 74.070313 "/>
<path style=" stroke:none;fill-rule:nonzero;fill:rgb(22.744751%,45.097351%,72.547913%);fill-opacity:1;" d="M 232.578125 64.605469 L 226.4375 64.605469 L 227.203125 60.984375 L 243.554688 60.984375 L 242.785156 64.605469 L 236.914063 64.605469 L 233.566406 80.574219 L 229.234375 80.574219 L 232.578125 64.605469 "/>
<path style=" stroke:none;fill-rule:nonzero;fill:rgb(22.744751%,45.097351%,72.547913%);fill-opacity:1;" d="M 246.816406 73 L 252.058594 73 L 251.097656 65.210938 L 251.042969 65.210938 Z M 249.671875 60.984375 L 254.085938 60.984375 L 257.351563 80.574219 L 253.070313 80.574219 L 252.441406 76.210938 L 245.117188 76.210938 L 242.648438 80.574219 L 238.09375 80.574219 L 249.671875 60.984375 "/>
<path style=" stroke:none;fill-rule:nonzero;fill:rgb(22.744751%,45.097351%,72.547913%);fill-opacity:1;" d="M 263.027344 60.984375 L 267.472656 60.984375 L 272.796875 74.921875 L 272.851563 74.921875 L 275.648438 60.984375 L 279.597656 60.984375 L 275.457031 80.574219 L 271.148438 80.574219 L 265.773438 66.828125 L 265.71875 66.828125 L 262.921875 80.574219 L 258.886719 80.574219 L 263.027344 60.984375 "/>
<path style=" stroke:none;fill-rule:nonzero;fill:rgb(22.744751%,45.097351%,72.547913%);fill-opacity:1;" d="M 214.863281 96.953125 C 214.136719 97.375 213.269531 97.394531 212.445313 97.457031 C 211.355469 97.578125 210.328125 97.839844 210.328125 99.148438 C 210.328125 99.933594 211.074219 100.316406 211.898438 100.316406 C 213.675781 100.316406 214.257813 99.089844 214.582031 97.960938 Z M 208.816406 94.695313 C 209.179688 92.074219 211.394531 91.246094 213.753906 91.246094 C 215.609375 91.246094 218.128906 91.652344 218.089844 93.988281 C 218.089844 94.429688 217.988281 95.097656 217.867188 95.742188 L 216.9375 99.933594 C 216.839844 100.296875 216.800781 100.941406 216.800781 101.347656 C 216.800781 101.527344 216.839844 101.769531 216.898438 101.949219 L 214.035156 101.949219 L 214.035156 100.921875 C 213.25 101.808594 212.019531 102.230469 210.851563 102.230469 C 208.574219 102.230469 207.46875 100.941406 207.46875 99.492188 C 207.46875 97.496094 208.980469 96.246094 211.457031 95.945313 C 214.15625 95.621094 215.429688 95.761719 215.429688 94.429688 C 215.429688 93.40625 214.339844 93.160156 213.613281 93.160156 C 212.585938 93.160156 211.679688 93.644531 211.496094 94.695313 L 208.816406 94.695313 "/>
<path style=" stroke:none;fill-rule:nonzero;fill:rgb(22.744751%,45.097351%,72.547913%);fill-opacity:1;" d="M 224.355469 89.917969 L 221.476563 89.917969 L 222 87.558594 L 224.882813 87.558594 Z M 221.152344 91.53125 L 224.035156 91.53125 L 221.816406 101.949219 L 218.933594 101.949219 L 221.152344 91.53125 "/>
<path style=" stroke:none;fill-rule:nonzero;fill:rgb(22.744751%,45.097351%,72.547913%);fill-opacity:1;" d="M 226.332031 91.53125 L 229.054688 91.53125 L 228.628906 93.40625 L 228.671875 93.445313 C 229.316406 92.011719 230.726563 91.246094 232.257813 91.246094 C 232.5625 91.246094 232.84375 91.269531 233.144531 91.308594 L 232.5625 94.089844 C 232.15625 94.007813 231.753906 93.90625 231.351563 93.90625 C 229.152344 93.90625 228.367188 95.558594 227.984375 97.335938 L 227.019531 101.949219 L 224.15625 101.949219 L 226.332031 91.53125 "/>
<path style=" stroke:none;fill-rule:nonzero;fill:rgb(22.744751%,45.097351%,72.547913%);fill-opacity:1;" d="M 243.605469 101.949219 L 240.621094 101.949219 L 240.261719 94.632813 L 240.21875 94.632813 L 236.992188 101.949219 L 233.992188 101.949219 L 232.84375 91.53125 L 235.765625 91.53125 L 236.167969 98.867188 L 236.207031 98.867188 L 239.414063 91.53125 L 242.316406 91.53125 L 242.636719 98.804688 L 242.679688 98.804688 L 246.023438 91.53125 L 249.046875 91.53125 L 243.605469 101.949219 "/>
<path style=" stroke:none;fill-rule:nonzero;fill:rgb(22.744751%,45.097351%,72.547913%);fill-opacity:1;" d="M 255.921875 96.953125 C 255.195313 97.375 254.328125 97.394531 253.503906 97.457031 C 252.414063 97.578125 251.386719 97.839844 251.386719 99.148438 C 251.386719 99.933594 252.132813 100.316406 252.957031 100.316406 C 254.730469 100.316406 255.316406 99.089844 255.640625 97.960938 Z M 249.875 94.695313 C 250.238281 92.074219 252.453125 91.246094 254.8125 91.246094 C 256.667969 91.246094 259.1875 91.652344 259.144531 93.988281 C 259.144531 94.429688 259.046875 95.097656 258.925781 95.742188 L 257.996094 99.933594 C 257.894531 100.296875 257.855469 100.941406 257.855469 101.347656 C 257.855469 101.527344 257.894531 101.769531 257.957031 101.949219 L 255.09375 101.949219 L 255.09375 100.921875 C 254.308594 101.808594 253.078125 102.230469 251.910156 102.230469 C 249.632813 102.230469 248.523438 100.941406 248.523438 99.492188 C 248.523438 97.496094 250.035156 96.246094 252.515625 95.945313 C 255.214844 95.621094 256.484375 95.761719 256.484375 94.429688 C 256.484375 93.40625 255.398438 93.160156 254.671875 93.160156 C 253.644531 93.160156 252.734375 93.644531 252.554688 94.695313 L 249.875 94.695313 "/>
<path style=" stroke:none;fill-rule:nonzero;fill:rgb(22.744751%,45.097351%,72.547913%);fill-opacity:1;" d="M 264.546875 103.421875 C 263.5625 105.214844 262.652344 105.617188 260.496094 105.617188 C 259.992188 105.617188 259.46875 105.539063 258.964844 105.519531 L 259.449219 103.140625 C 259.832031 103.140625 260.234375 103.261719 260.617188 103.261719 C 261.96875 103.261719 262.128906 102.394531 262.511719 101.851563 L 260.65625 91.53125 L 263.601563 91.53125 L 264.507813 98.988281 L 264.546875 98.988281 L 268.15625 91.53125 L 271.179688 91.53125 L 264.546875 103.421875 "/>
<path style=" stroke:none;fill-rule:nonzero;fill:rgb(22.744751%,45.097351%,72.547913%);fill-opacity:1;" d="M 277.789063 94.574219 C 277.769531 93.6875 277.265625 93.160156 276.179688 93.160156 C 275.171875 93.160156 274.425781 93.445313 274.425781 94.191406 C 274.425781 94.652344 274.765625 94.933594 275.734375 95.238281 L 277.164063 95.703125 C 278.695313 96.207031 279.90625 96.929688 279.90625 98.683594 C 279.90625 101.265625 277.347656 102.230469 274.949219 102.230469 C 272.910156 102.230469 270.515625 101.425781 270.515625 98.988281 L 270.515625 98.5625 L 273.175781 98.5625 L 273.175781 98.90625 C 273.175781 99.851563 274.242188 100.316406 275.230469 100.316406 C 276.097656 100.316406 277.046875 100.015625 277.046875 99.066406 C 277.046875 98.34375 276.640625 98.121094 276.015625 97.917969 L 273.820313 97.214844 C 272.390625 96.75 271.5625 96.183594 271.5625 94.550781 C 271.5625 92.09375 274.160156 91.246094 276.179688 91.246094 C 278.453125 91.246094 280.492188 91.894531 280.449219 94.574219 L 277.789063 94.574219 "/>
<path style="fill:none;stroke-width:5;stroke-linecap:butt;stroke-linejoin:miter;stroke:rgb(0%,0%,0%);stroke-opacity:1;stroke-miterlimit:4;" d="M 270 360 L 0 360 " transform="matrix(0.1,0,0,-0.1,0,162)"/>
<path style="fill:none;stroke-width:5;stroke-linecap:butt;stroke-linejoin:miter;stroke:rgb(0%,0%,0%);stroke-opacity:1;stroke-miterlimit:4;" d="M 360 270 L 360 0 " transform="matrix(0.1,0,0,-0.1,0,162)"/>
<path style="fill:none;stroke-width:5;stroke-linecap:butt;stroke-linejoin:miter;stroke:rgb(0%,0%,0%);stroke-opacity:1;stroke-miterlimit:4;" d="M 270 1260 L 0 1260 " transform="matrix(0.1,0,0,-0.1,0,162)"/>
<path style="fill:none;stroke-width:5;stroke-linecap:butt;stroke-linejoin:miter;stroke:rgb(0%,0%,0%);stroke-opacity:1;stroke-miterlimit:4;" d="M 360 1350 L 360 1620 " transform="matrix(0.1,0,0,-0.1,0,162)"/>
<path style="fill:none;stroke-width:5;stroke-linecap:butt;stroke-linejoin:miter;stroke:rgb(0%,0%,0%);stroke-opacity:1;stroke-miterlimit:4;" d="M 2970 1260 L 3240 1260 " transform="matrix(0.1,0,0,-0.1,0,162)"/>
<path style="fill:none;stroke-width:5;stroke-linecap:butt;stroke-linejoin:miter;stroke:rgb(0%,0%,0%);stroke-opacity:1;stroke-miterlimit:4;" d="M 2880 1350 L 2880 1620 " transform="matrix(0.1,0,0,-0.1,0,162)"/>
<path style="fill:none;stroke-width:5;stroke-linecap:butt;stroke-linejoin:miter;stroke:rgb(0%,0%,0%);stroke-opacity:1;stroke-miterlimit:4;" d="M 2970 360 L 3240 360 " transform="matrix(0.1,0,0,-0.1,0,162)"/>
<path style="fill:none;stroke-width:5;stroke-linecap:butt;stroke-linejoin:miter;stroke:rgb(0%,0%,0%);stroke-opacity:1;stroke-miterlimit:4;" d="M 2880 270 L 2880 0 " transform="matrix(0.1,0,0,-0.1,0,162)"/>
</g>
</svg>
