<svg width="529" height="484" viewBox="0 0 529 484" fill="none" xmlns="http://www.w3.org/2000/svg">
<rect width="529" height="484" fill="#101010"/>
<path d="M422 103.08C402 102.28 387.667 108.746 383 112.08C384.833 109.683 391.7 103.979 404.5 101.58C409.702 100.097 435.444 100.183 442.5 101.58C449.556 102.977 448.482 108.137 445.5 111.58C442.518 115.022 437 118.58 437 118.58C437.5 117.913 438.9 115.88 440.5 113.08C444.483 106.307 443.731 104.009 439 103.58C432.622 102.98 428.963 103.462 428.5 103.58C427.337 103.875 419.333 107.58 415.5 109.58C417.167 107.746 420.8 103.88 422 103.08Z" fill="url(#paint0_linear_2917_10519)"/>
<path d="M171 126.579L276.5 65.0795C282.475 61.6221 294.116 63.0867 298.5 65.0795L380 113.079L327.5 149.08H298.5C298.833 148.413 300 145.98 302 141.58C303.355 138.015 302.939 135.171 296 132.58C291.001 130.712 286.167 134.413 284.5 136.08L274.5 145.58L194.5 143.08L173.5 167.08H174.5L190 155.08L207 162.08L216.5 155.08L210 163.08L231 171.58L245 160.08L235 172.58L274.5 186.58L273.5 187.08L246.5 204.579L214.5 186.58L195.5 199.079L204.5 210.079V212.079L181.5 212.579L167.5 229.079L179.5 223.079L203.5 236.079C195.833 241.079 176.3 253.379 159.5 262.579C138 271.079 105 268.079 100.5 223.579C96.9005 187.979 139.334 176.746 161 175.58V144.58C161 135.78 167.667 128.913 171 126.579Z" fill="url(#paint1_linear_2917_10519)"/>
<path d="M136 289.08H183.5C210 304.914 265.5 337.88 275.5 343.08C281.94 345.498 295.512 343.472 298.5 342.08C326.333 326.247 384.9 292.88 396.5 286.08C408.1 280.88 411.667 267.914 412 262.08V138.08L361 173.08L370 185.08L376 181.08C390 178.58 387.5 189.58 384.5 193.58L378 200.08L402.5 235.58L360.5 262.08L384.5 240.08L363.5 227.08L368.5 219.08L359 224.58L341.5 212.58L351 201.58L337.5 210.58L315.5 200.08L250 236.58L265 253.08L248 271.08L250.5 263.58C243.667 259.914 229 251.98 225 249.58C205.5 267.08 173 282.203 158.5 284.08C144 285.958 129.215 284.248 127.5 284.08C99 280.08 87 262.08 81 256.58C93.4 282.18 122.833 288.914 136 289.08Z" fill="url(#paint2_linear_2917_10519)"/>
<path d="M71.9844 405.703C70.8594 405.703 70.4922 405.187 70.8828 404.156L82.3672 373.992C82.8516 372.726 83.5859 372.093 84.5703 372.093H87.8516C88.8359 372.093 89.5703 372.726 90.0547 373.992L101.539 404.156C101.93 405.187 101.562 405.703 100.438 405.703H96.7109C95.6797 405.703 94.9609 405.164 94.5547 404.085L92.1641 397.781H80.2578L77.8672 404.085C77.4609 405.164 76.7422 405.703 75.7109 405.703H71.9844ZM82.4375 391.968H89.9844L87.1016 384.515C86.7578 383.64 86.5469 383.007 86.4688 382.617C86.4062 382.21 86.3359 381.617 86.2578 380.835H86.1641C86.0859 381.617 86.0078 382.21 85.9297 382.617C85.8672 383.007 85.6641 383.64 85.3203 384.515L82.4375 391.968ZM102.219 382.921C101.828 381.703 102.086 381.093 102.992 381.093H107.188C107.922 381.093 108.391 381.492 108.594 382.289L112.227 396.023C112.43 396.789 112.594 397.546 112.719 398.296C112.859 399.046 112.945 399.656 112.977 400.125H113.117C113.148 399.656 113.227 399.046 113.352 398.296C113.492 397.546 113.664 396.789 113.867 396.023L117.5 382.289C117.703 381.492 118.172 381.093 118.906 381.093H123.102C124.008 381.093 124.266 381.703 123.875 382.921L117.078 404.132C116.75 405.179 116.18 405.703 115.367 405.703H110.727C109.914 405.703 109.344 405.179 109.016 404.132L102.219 382.921ZM128.867 405.703C127.93 405.703 127.461 405.234 127.461 404.296V382.5C127.461 381.562 127.93 381.093 128.867 381.093H132.617C133.555 381.093 134.023 381.562 134.023 382.5V404.296C134.023 405.234 133.555 405.703 132.617 405.703H128.867ZM128.867 377.484C127.93 377.484 127.461 377.015 127.461 376.078V373.078C127.461 372.14 127.93 371.671 128.867 371.671H132.617C133.555 371.671 134.023 372.14 134.023 373.078V376.078C134.023 377.015 133.555 377.484 132.617 377.484H128.867ZM139.086 399.14C139.086 396.015 140.578 393.75 143.562 392.343C146.547 390.937 149.953 390.187 153.781 390.093V389.156C153.781 387.718 153.422 386.703 152.703 386.109C151.984 385.515 150.984 385.218 149.703 385.218C148.797 385.218 147.992 385.351 147.289 385.617C146.602 385.867 146 386.164 145.484 386.507C144.984 386.835 144.531 387.171 144.125 387.515C143.406 388.14 142.812 388.171 142.344 387.609L140.398 385.218C139.914 384.625 140.031 384.015 140.75 383.39C141.297 382.906 141.93 382.484 142.648 382.125C143.383 381.765 144.352 381.429 145.555 381.117C146.758 380.789 148.32 380.625 150.242 380.625C153.492 380.625 155.984 381.375 157.719 382.875C159.469 384.375 160.344 386.585 160.344 389.507V404.296C160.344 405.234 159.875 405.703 158.938 405.703H155.094C154.25 405.703 153.828 405.234 153.828 404.296V403.593H153.781C152.859 404.484 151.75 405.14 150.453 405.562C149.172 405.968 147.992 406.171 146.914 406.171C144.352 406.171 142.406 405.546 141.078 404.296C139.75 403.031 139.086 401.312 139.086 399.14ZM146.023 399C146.023 399.546 146.133 400.023 146.352 400.429C146.57 400.82 146.914 401.109 147.383 401.296C147.852 401.484 148.375 401.578 148.953 401.578C149.75 401.578 150.523 401.468 151.273 401.25C152.023 401.031 152.859 400.515 153.781 399.703V394.617C151.156 394.914 149.398 395.296 148.508 395.765C147.617 396.234 146.977 396.718 146.586 397.218C146.211 397.718 146.023 398.312 146.023 399ZM185.586 405.703C184.336 405.703 183.711 405.117 183.711 403.945V373.851C183.711 372.679 184.336 372.093 185.586 372.093H193.555C199.555 372.093 203.602 372.835 205.695 374.32C207.805 375.789 208.859 378.054 208.859 381.117C208.859 383.257 208.07 384.914 206.492 386.085C204.93 387.257 203.414 387.937 201.945 388.125V388.195C203.367 388.289 205.039 389.007 206.961 390.351C208.883 391.695 209.844 393.593 209.844 396.046C209.844 398.921 208.672 401.25 206.328 403.031C203.984 404.812 200.117 405.703 194.727 405.703H185.586ZM190.555 399.984H193.977C197.289 399.984 199.539 399.695 200.727 399.117C201.93 398.539 202.531 397.367 202.531 395.601C202.531 393.945 201.836 392.804 200.445 392.179C199.07 391.539 196.914 391.218 193.977 391.218H190.555V399.984ZM190.555 385.687H193.625C195.641 385.687 197.523 385.335 199.273 384.632C201.039 383.929 201.922 382.835 201.922 381.351C201.922 380.195 201.43 379.32 200.445 378.726C199.477 378.117 197.203 377.812 193.625 377.812H190.555V385.687ZM214.18 393.398C214.18 389.414 215.203 386.289 217.25 384.023C219.312 381.757 222.375 380.625 226.438 380.625C230.5 380.625 233.555 381.757 235.602 384.023C237.664 386.289 238.695 389.414 238.695 393.398C238.695 397.382 237.664 400.507 235.602 402.773C233.555 405.039 230.5 406.171 226.438 406.171C222.375 406.171 219.312 405.039 217.25 402.773C215.203 400.507 214.18 397.382 214.18 393.398ZM221.117 393.398C221.117 396.367 221.57 398.476 222.477 399.726C223.398 400.96 224.719 401.578 226.438 401.578C228.156 401.578 229.469 400.96 230.375 399.726C231.297 398.476 231.758 396.367 231.758 393.398C231.758 390.429 231.297 388.328 230.375 387.093C229.469 385.843 228.156 385.218 226.438 385.218C224.719 385.218 223.398 385.843 222.477 387.093C221.57 388.328 221.117 390.429 221.117 393.398ZM242.445 393.398C242.445 389.414 243.469 386.289 245.516 384.023C247.578 381.757 250.641 380.625 254.703 380.625C258.766 380.625 261.82 381.757 263.867 384.023C265.93 386.289 266.961 389.414 266.961 393.398C266.961 397.382 265.93 400.507 263.867 402.773C261.82 405.039 258.766 406.171 254.703 406.171C250.641 406.171 247.578 405.039 245.516 402.773C243.469 400.507 242.445 397.382 242.445 393.398ZM249.383 393.398C249.383 396.367 249.836 398.476 250.742 399.726C251.664 400.96 252.984 401.578 254.703 401.578C256.422 401.578 257.734 400.96 258.641 399.726C259.562 398.476 260.023 396.367 260.023 393.398C260.023 390.429 259.562 388.328 258.641 387.093C257.734 385.843 256.422 385.218 254.703 385.218C252.984 385.218 251.664 385.843 250.742 387.093C249.836 388.328 249.383 390.429 249.383 393.398ZM273.43 405.703C272.492 405.703 272.023 405.234 272.023 404.296V372.515C272.023 371.578 272.492 371.109 273.43 371.109H277.18C278.117 371.109 278.586 371.578 278.586 372.515V389.742C278.586 390.367 278.555 390.992 278.492 391.617H278.586L286.016 382.054C286.516 381.414 287.125 381.093 287.844 381.093H291.688C293.125 381.093 293.367 381.671 292.414 382.828L285.336 391.382L293.539 403.968C294.289 405.125 294.047 405.703 292.812 405.703H288.805C288.023 405.703 287.383 405.296 286.883 404.484L281.562 395.929L278.586 399.515V404.296C278.586 405.234 278.117 405.703 277.18 405.703H273.43ZM299.586 405.703C298.648 405.703 298.18 405.234 298.18 404.296V382.5C298.18 381.562 298.648 381.093 299.586 381.093H303.336C304.273 381.093 304.742 381.562 304.742 382.5V404.296C304.742 405.234 304.273 405.703 303.336 405.703H299.586ZM299.586 377.484C298.648 377.484 298.18 377.015 298.18 376.078V373.078C298.18 372.14 298.648 371.671 299.586 371.671H303.336C304.273 371.671 304.742 372.14 304.742 373.078V376.078C304.742 377.015 304.273 377.484 303.336 377.484H299.586ZM312.523 405.703C311.586 405.703 311.117 405.234 311.117 404.296V382.5C311.117 381.562 311.586 381.093 312.523 381.093H316.227C317.164 381.093 317.633 381.562 317.633 382.5V383.859H317.727C318.445 382.625 319.359 381.781 320.469 381.328C321.578 380.859 322.914 380.625 324.477 380.625C326.914 380.625 328.93 381.39 330.523 382.921C332.117 384.453 332.914 387.25 332.914 391.312V404.296C332.914 405.234 332.445 405.703 331.508 405.703H327.758C326.82 405.703 326.352 405.234 326.352 404.296V393C326.352 389.593 326.117 387.445 325.648 386.554C325.18 385.664 324.172 385.218 322.625 385.218C320.984 385.218 319.75 385.859 318.922 387.14C318.094 388.406 317.68 391.046 317.68 395.062V404.296C317.68 405.234 317.211 405.703 316.273 405.703H312.523ZM337.93 393.398C337.93 389.96 338.672 386.976 340.156 384.445C341.656 381.898 344.242 380.625 347.914 380.625C349.32 380.625 350.523 380.828 351.523 381.234C352.523 381.64 353.43 382.515 354.242 383.859H354.336L354.43 382.5C354.492 381.562 354.914 381.093 355.695 381.093H359.398C360.336 381.093 360.805 381.562 360.805 382.5V405.445C360.805 409.273 359.773 411.914 357.711 413.367C355.648 414.82 352.664 415.546 348.758 415.546C347.102 415.546 345.57 415.46 344.164 415.289C342.758 415.117 341.336 414.687 339.898 414C339.148 413.64 339.023 412.96 339.523 411.96L340.367 410.273C340.711 409.585 341.281 409.429 342.078 409.804C342.719 410.101 343.508 410.367 344.445 410.601C345.398 410.835 346.602 410.953 348.055 410.953C350.055 410.953 351.586 410.578 352.648 409.828C353.711 409.093 354.242 407.476 354.242 404.976V404.578C354.242 403.953 354.273 403.328 354.336 402.703H354.242C353.43 404.046 352.523 404.921 351.523 405.328C350.523 405.734 349.32 405.937 347.914 405.937C344.242 405.937 341.656 404.671 340.156 402.14C338.672 399.593 337.93 396.679 337.93 393.398ZM344.867 393.398C344.867 395.742 345.188 397.656 345.828 399.14C346.484 400.609 347.867 401.343 349.977 401.343C351.148 401.343 352.148 400.687 352.977 399.375C353.82 398.046 354.242 396.328 354.242 394.218V392.343C354.242 390.234 353.82 388.523 352.977 387.21C352.148 385.882 351.148 385.218 349.977 385.218C347.867 385.218 346.484 385.96 345.828 387.445C345.188 388.914 344.867 390.898 344.867 393.398ZM386.023 405.703C384.773 405.703 384.148 405.117 384.148 403.945V373.851C384.148 372.679 384.773 372.093 386.023 372.093H393.992C399.992 372.093 404.039 372.835 406.133 374.32C408.242 375.789 409.297 378.054 409.297 381.117C409.297 383.257 408.508 384.914 406.93 386.085C405.367 387.257 403.852 387.937 402.383 388.125V388.195C403.805 388.289 405.477 389.007 407.398 390.351C409.32 391.695 410.281 393.593 410.281 396.046C410.281 398.921 409.109 401.25 406.766 403.031C404.422 404.812 400.555 405.703 395.164 405.703H386.023ZM390.992 399.984H394.414C397.727 399.984 399.977 399.695 401.164 399.117C402.367 398.539 402.969 397.367 402.969 395.601C402.969 393.945 402.273 392.804 400.883 392.179C399.508 391.539 397.352 391.218 394.414 391.218H390.992V399.984ZM390.992 385.687H394.062C396.078 385.687 397.961 385.335 399.711 384.632C401.477 383.929 402.359 382.835 402.359 381.351C402.359 380.195 401.867 379.32 400.883 378.726C399.914 378.117 397.641 377.812 394.062 377.812H390.992V385.687ZM414.617 393.398C414.617 389.414 415.641 386.289 417.688 384.023C419.75 381.757 422.812 380.625 426.875 380.625C430.938 380.625 433.992 381.757 436.039 384.023C438.102 386.289 439.133 389.414 439.133 393.398C439.133 397.382 438.102 400.507 436.039 402.773C433.992 405.039 430.938 406.171 426.875 406.171C422.812 406.171 419.75 405.039 417.688 402.773C415.641 400.507 414.617 397.382 414.617 393.398ZM421.555 393.398C421.555 396.367 422.008 398.476 422.914 399.726C423.836 400.96 425.156 401.578 426.875 401.578C428.594 401.578 429.906 400.96 430.812 399.726C431.734 398.476 432.195 396.367 432.195 393.398C432.195 390.429 431.734 388.328 430.812 387.093C429.906 385.843 428.594 385.218 426.875 385.218C425.156 385.218 423.836 385.843 422.914 387.093C422.008 388.328 421.555 390.429 421.555 393.398ZM443.375 385.781C442.453 385.781 441.992 385.39 441.992 384.609V382.265C441.992 381.484 442.453 381.093 443.375 381.093H444.969V380.273C444.969 379.57 445.133 378.929 445.461 378.351L447.266 375.187C447.609 374.593 448.016 374.296 448.484 374.296H450.125C451.062 374.296 451.531 374.765 451.531 375.703V381.093H455.328C456.25 381.093 456.711 381.484 456.711 382.265V384.609C456.711 385.39 456.25 385.781 455.328 385.781H451.531V397.406C451.531 399 451.641 400.148 451.859 400.851C452.094 401.539 452.688 401.882 453.641 401.882C454.125 401.882 454.672 401.804 455.281 401.648C455.891 401.476 456.367 401.312 456.711 401.156C457.258 400.906 457.617 401.085 457.789 401.695L458.492 404.367C458.633 404.898 458.43 405.289 457.883 405.539C457.367 405.773 456.656 405.984 455.75 406.171C454.859 406.375 453.961 406.476 453.055 406.476C450.82 406.476 448.914 406.015 447.336 405.093C445.758 404.171 444.969 402.273 444.969 399.398V385.781H443.375Z" fill="#249BBE"/>
<defs>
<linearGradient id="paint0_linear_2917_10519" x1="461.438" y1="108.71" x2="376.565" y2="105.559" gradientUnits="userSpaceOnUse">
<stop stop-color="#189198"/>
<stop offset="1" stop-color="#17A3B6"/>
</linearGradient>
<linearGradient id="paint1_linear_2917_10519" x1="438.872" y1="155.351" x2="72.0771" y2="150.124" gradientUnits="userSpaceOnUse">
<stop stop-color="#189198"/>
<stop offset="1" stop-color="#17A3B6"/>
</linearGradient>
<linearGradient id="paint2_linear_2917_10519" x1="481.666" y1="231.687" x2="47.6521" y2="224.466" gradientUnits="userSpaceOnUse">
<stop stop-color="#189198"/>
<stop offset="1" stop-color="#17A3B6"/>
</linearGradient>
</defs>
</svg>
