<svg width="367" height="282" viewBox="0 0 367 282" fill="none" xmlns="http://www.w3.org/2000/svg">
<path d="M341 40.0797C321 39.2797 306.667 45.7463 302 49.0797C303.833 46.6827 310.7 40.9795 323.5 38.5796C328.702 37.097 354.444 37.1826 361.5 38.5796C368.556 39.9767 367.482 45.1374 364.5 48.5796C361.518 52.0219 356 55.5797 356 55.5797C356.5 54.913 357.9 52.8797 359.5 50.0796C363.483 43.3073 362.731 41.0087 358 40.5796C351.622 39.9798 347.963 40.462 347.5 40.5796C346.337 40.8751 338.333 44.5796 334.5 46.5796C336.167 44.7463 339.8 40.8797 341 40.0797Z" fill="black"/>
<path d="M90.0005 63.5795L195.5 2.07949C201.475 -1.37789 213.116 0.0866582 217.5 2.07949L299 50.0795L246.5 86.0795H217.5C217.833 85.4128 219 82.9795 221 78.5795C222.355 75.0153 221.939 72.1709 215 69.5795C210.001 67.7124 205.167 71.4128 203.5 73.0795L193.5 82.5795L113.5 80.0795L92.5 104.08H93.5L109 92.0795L126 99.0795L135.5 92.0795L129 100.08L150 108.58L164 97.0795L154 109.58L193.5 123.58L192.5 124.08L165.5 141.579L133.5 123.58L114.5 136.079L123.5 147.079V149.079L100.5 149.579L86.5 166.079L98.5 160.079L122.5 173.079C114.833 178.079 95.3 190.379 78.5 199.579C57 208.079 24.0005 205.079 19.5005 160.579C15.9005 124.979 58.3338 113.746 80.0005 112.58V81.5795C80.0005 72.7795 86.6671 65.9128 90.0005 63.5795Z" fill="black"/>
<path d="M55 226.08H102.5C129 241.914 184.5 274.88 194.5 280.08C200.94 282.498 214.512 280.472 217.5 279.08C245.333 263.247 303.9 229.88 315.5 223.08C327.1 217.88 330.667 204.914 331 199.08V75.0801L280 110.08L289 122.08L295 118.08C309 115.58 306.5 126.58 303.5 130.58L297 137.08L321.5 172.58L279.5 199.08L303.5 177.08L282.5 164.08L287.5 156.08L278 161.58L260.5 149.58L270 138.58L256.5 147.58L234.5 137.08L169 173.58L184 190.08L167 208.08L169.5 200.58C162.667 196.914 148 188.98 144 186.58C124.5 204.08 92 219.203 77.5 221.08C63 222.958 48.2149 221.248 46.5 221.08C18 217.08 6 199.08 0 193.58C12.4 219.18 41.8333 225.914 55 226.08Z" fill="black"/>
</svg>
