<svg width="529" height="484" viewBox="0 0 529 484" fill="none" xmlns="http://www.w3.org/2000/svg">
<rect width="529" height="484" fill="#101010"/>
<path d="M422 103.08C402 102.28 387.667 108.746 383 112.08C384.833 109.683 391.7 103.979 404.5 101.58C409.702 100.097 435.444 100.183 442.5 101.58C449.556 102.977 448.482 108.137 445.5 111.58C442.518 115.022 437 118.58 437 118.58C437.5 117.913 438.9 115.88 440.5 113.08C444.483 106.307 443.731 104.009 439 103.58C432.622 102.98 428.963 103.462 428.5 103.58C427.337 103.875 419.333 107.58 415.5 109.58C417.167 107.746 420.8 103.88 422 103.08Z" fill="url(#paint0_linear_2917_10512)"/>
<path d="M171 126.579L276.5 65.0795C282.475 61.6221 294.116 63.0867 298.5 65.0795L380 113.079L327.5 149.08H298.5C298.833 148.413 300 145.98 302 141.58C303.355 138.015 302.939 135.171 296 132.58C291.001 130.712 286.167 134.413 284.5 136.08L274.5 145.58L194.5 143.08L173.5 167.08H174.5L190 155.08L207 162.08L216.5 155.08L210 163.08L231 171.58L245 160.08L235 172.58L274.5 186.58L273.5 187.08L246.5 204.579L214.5 186.58L195.5 199.079L204.5 210.079V212.079L181.5 212.579L167.5 229.079L179.5 223.079L203.5 236.079C195.833 241.079 176.3 253.379 159.5 262.579C138 271.079 105 268.079 100.5 223.579C96.9005 187.979 139.334 176.746 161 175.58V144.58C161 135.78 167.667 128.913 171 126.579Z" fill="url(#paint1_linear_2917_10512)"/>
<path d="M136 289.08H183.5C210 304.914 265.5 337.88 275.5 343.08C281.94 345.498 295.512 343.472 298.5 342.08C326.333 326.247 384.9 292.88 396.5 286.08C408.1 280.88 411.667 267.914 412 262.08V138.08L361 173.08L370 185.08L376 181.08C390 178.58 387.5 189.58 384.5 193.58L378 200.08L402.5 235.58L360.5 262.08L384.5 240.08L363.5 227.08L368.5 219.08L359 224.58L341.5 212.58L351 201.58L337.5 210.58L315.5 200.08L250 236.58L265 253.08L248 271.08L250.5 263.58C243.667 259.914 229 251.98 225 249.58C205.5 267.08 173 282.203 158.5 284.08C144 285.958 129.215 284.248 127.5 284.08C99 280.08 87 262.08 81 256.58C93.4 282.18 122.833 288.914 136 289.08Z" fill="url(#paint2_linear_2917_10512)"/>
<path d="M121.625 403.195C120.656 402.46 120.422 401.718 120.922 400.968L122.727 398.25C123.32 397.359 124.188 397.312 125.328 398.109C126.203 398.718 127.344 399.351 128.75 400.007C130.172 400.648 131.664 400.968 133.227 400.968C134.32 400.968 135.375 400.843 136.391 400.593C137.406 400.343 138.18 399.859 138.711 399.14C139.242 398.421 139.508 397.57 139.508 396.585C139.508 395.882 139.391 395.265 139.156 394.734C138.922 394.203 138.539 393.765 138.008 393.421C137.477 393.078 136.93 392.789 136.367 392.554C135.383 392.148 134.141 391.75 132.641 391.359C131.156 390.953 129.688 390.468 128.234 389.906C126.938 389.406 125.75 388.718 124.672 387.843C123.594 386.968 122.758 385.984 122.164 384.89C121.57 383.796 121.273 382.335 121.273 380.507C121.273 378.335 121.977 376.476 123.383 374.929C124.789 373.382 126.406 372.39 128.234 371.953C130.062 371.515 131.906 371.296 133.766 371.296C135.609 371.296 137.508 371.578 139.461 372.14C141.43 372.703 142.914 373.406 143.914 374.25C144.898 375.078 145.141 375.828 144.641 376.5L142.742 379.054C142.102 379.929 141.242 380 140.164 379.265C139.477 378.796 138.531 378.273 137.328 377.695C136.141 377.117 134.898 376.828 133.602 376.828C132.68 376.828 131.828 376.906 131.047 377.062C130.281 377.218 129.602 377.593 129.008 378.187C128.414 378.781 128.117 379.515 128.117 380.39C128.117 381.234 128.336 381.921 128.773 382.453C129.211 382.968 129.695 383.359 130.227 383.625C130.758 383.875 131.297 384.085 131.844 384.257C133.531 384.804 135.039 385.289 136.367 385.71C137.695 386.117 138.922 386.57 140.047 387.07C141.609 387.773 142.805 388.476 143.633 389.179C144.461 389.882 145.141 390.843 145.672 392.062C146.219 393.281 146.492 394.734 146.492 396.421C146.492 398.921 145.695 400.992 144.102 402.632C142.508 404.257 140.734 405.304 138.781 405.773C136.844 406.257 134.953 406.5 133.109 406.5C130.391 406.5 128.18 406.234 126.477 405.703C124.773 405.187 123.156 404.351 121.625 403.195ZM150.008 393.398C150.008 389.414 151.031 386.289 153.078 384.023C155.141 381.757 158.203 380.625 162.266 380.625C166.328 380.625 169.383 381.757 171.43 384.023C173.492 386.289 174.523 389.414 174.523 393.398C174.523 397.382 173.492 400.507 171.43 402.773C169.383 405.039 166.328 406.171 162.266 406.171C158.203 406.171 155.141 405.039 153.078 402.773C151.031 400.507 150.008 397.382 150.008 393.398ZM156.945 393.398C156.945 396.367 157.398 398.476 158.305 399.726C159.227 400.96 160.547 401.578 162.266 401.578C163.984 401.578 165.297 400.96 166.203 399.726C167.125 398.476 167.586 396.367 167.586 393.398C167.586 390.429 167.125 388.328 166.203 387.093C165.297 385.843 163.984 385.218 162.266 385.218C160.547 385.218 159.227 385.843 158.305 387.093C157.398 388.328 156.945 390.429 156.945 393.398ZM178.766 385.781C177.844 385.781 177.383 385.39 177.383 384.609V382.265C177.383 381.484 177.844 381.093 178.766 381.093H180.078V377.812C180.078 374.937 180.898 373.023 182.539 372.07C184.18 371.117 186.133 370.64 188.398 370.64C189.477 370.64 190.398 370.703 191.164 370.828C191.945 370.953 192.633 371.109 193.227 371.296C193.789 371.484 193.992 371.875 193.836 372.468L193.133 375.117C192.992 375.632 192.633 375.789 192.055 375.585C191.711 375.46 191.227 375.375 190.602 375.328C189.992 375.265 189.508 375.234 189.148 375.234C188.008 375.234 187.305 375.632 187.039 376.429C186.773 377.226 186.641 378.468 186.641 380.156V381.093H189.734C190.656 381.093 191.117 381.484 191.117 382.265V384.609C191.117 385.39 190.656 385.781 189.734 385.781H186.641V404.296C186.641 405.234 186.172 405.703 185.234 405.703H181.484C180.547 405.703 180.078 405.234 180.078 404.296V385.781H178.766ZM194.75 385.781C193.828 385.781 193.367 385.39 193.367 384.609V382.265C193.367 381.484 193.828 381.093 194.75 381.093H196.344V380.273C196.344 379.57 196.508 378.929 196.836 378.351L198.641 375.187C198.984 374.593 199.391 374.296 199.859 374.296H201.5C202.438 374.296 202.906 374.765 202.906 375.703V381.093H206.703C207.625 381.093 208.086 381.484 208.086 382.265V384.609C208.086 385.39 207.625 385.781 206.703 385.781H202.906V397.406C202.906 399 203.016 400.148 203.234 400.851C203.469 401.539 204.062 401.882 205.016 401.882C205.5 401.882 206.047 401.804 206.656 401.648C207.266 401.476 207.742 401.312 208.086 401.156C208.633 400.906 208.992 401.085 209.164 401.695L209.867 404.367C210.008 404.898 209.805 405.289 209.258 405.539C208.742 405.773 208.031 405.984 207.125 406.171C206.234 406.375 205.336 406.476 204.43 406.476C202.195 406.476 200.289 406.015 198.711 405.093C197.133 404.171 196.344 402.273 196.344 399.398V385.781H194.75ZM233.117 405.703C231.867 405.703 231.242 405.117 231.242 403.945V373.851C231.242 372.679 231.867 372.093 233.117 372.093H241.086C247.086 372.093 251.133 372.835 253.227 374.32C255.336 375.789 256.391 378.054 256.391 381.117C256.391 383.257 255.602 384.914 254.023 386.085C252.461 387.257 250.945 387.937 249.477 388.125V388.195C250.898 388.289 252.57 389.007 254.492 390.351C256.414 391.695 257.375 393.593 257.375 396.046C257.375 398.921 256.203 401.25 253.859 403.031C251.516 404.812 247.648 405.703 242.258 405.703H233.117ZM238.086 399.984H241.508C244.82 399.984 247.07 399.695 248.258 399.117C249.461 398.539 250.062 397.367 250.062 395.601C250.062 393.945 249.367 392.804 247.977 392.179C246.602 391.539 244.445 391.218 241.508 391.218H238.086V399.984ZM238.086 385.687H241.156C243.172 385.687 245.055 385.335 246.805 384.632C248.57 383.929 249.453 382.835 249.453 381.351C249.453 380.195 248.961 379.32 247.977 378.726C247.008 378.117 244.734 377.812 241.156 377.812H238.086V385.687ZM261.711 393.398C261.711 389.414 262.734 386.289 264.781 384.023C266.844 381.757 269.906 380.625 273.969 380.625C278.031 380.625 281.086 381.757 283.133 384.023C285.195 386.289 286.227 389.414 286.227 393.398C286.227 397.382 285.195 400.507 283.133 402.773C281.086 405.039 278.031 406.171 273.969 406.171C269.906 406.171 266.844 405.039 264.781 402.773C262.734 400.507 261.711 397.382 261.711 393.398ZM268.648 393.398C268.648 396.367 269.102 398.476 270.008 399.726C270.93 400.96 272.25 401.578 273.969 401.578C275.688 401.578 277 400.96 277.906 399.726C278.828 398.476 279.289 396.367 279.289 393.398C279.289 390.429 278.828 388.328 277.906 387.093C277 385.843 275.688 385.218 273.969 385.218C272.25 385.218 270.93 385.843 270.008 387.093C269.102 388.328 268.648 390.429 268.648 393.398ZM289.977 393.398C289.977 389.414 291 386.289 293.047 384.023C295.109 381.757 298.172 380.625 302.234 380.625C306.297 380.625 309.352 381.757 311.398 384.023C313.461 386.289 314.492 389.414 314.492 393.398C314.492 397.382 313.461 400.507 311.398 402.773C309.352 405.039 306.297 406.171 302.234 406.171C298.172 406.171 295.109 405.039 293.047 402.773C291 400.507 289.977 397.382 289.977 393.398ZM296.914 393.398C296.914 396.367 297.367 398.476 298.273 399.726C299.195 400.96 300.516 401.578 302.234 401.578C303.953 401.578 305.266 400.96 306.172 399.726C307.094 398.476 307.555 396.367 307.555 393.398C307.555 390.429 307.094 388.328 306.172 387.093C305.266 385.843 303.953 385.218 302.234 385.218C300.516 385.218 299.195 385.843 298.273 387.093C297.367 388.328 296.914 390.429 296.914 393.398ZM320.961 405.703C320.023 405.703 319.555 405.234 319.555 404.296V372.515C319.555 371.578 320.023 371.109 320.961 371.109H324.711C325.648 371.109 326.117 371.578 326.117 372.515V389.742C326.117 390.367 326.086 390.992 326.023 391.617H326.117L333.547 382.054C334.047 381.414 334.656 381.093 335.375 381.093H339.219C340.656 381.093 340.898 381.671 339.945 382.828L332.867 391.382L341.07 403.968C341.82 405.125 341.578 405.703 340.344 405.703H336.336C335.555 405.703 334.914 405.296 334.414 404.484L329.094 395.929L326.117 399.515V404.296C326.117 405.234 325.648 405.703 324.711 405.703H320.961ZM347.117 405.703C346.18 405.703 345.711 405.234 345.711 404.296V382.5C345.711 381.562 346.18 381.093 347.117 381.093H350.867C351.805 381.093 352.273 381.562 352.273 382.5V404.296C352.273 405.234 351.805 405.703 350.867 405.703H347.117ZM347.117 377.484C346.18 377.484 345.711 377.015 345.711 376.078V373.078C345.711 372.14 346.18 371.671 347.117 371.671H350.867C351.805 371.671 352.273 372.14 352.273 373.078V376.078C352.273 377.015 351.805 377.484 350.867 377.484H347.117ZM360.055 405.703C359.117 405.703 358.648 405.234 358.648 404.296V382.5C358.648 381.562 359.117 381.093 360.055 381.093H363.758C364.695 381.093 365.164 381.562 365.164 382.5V383.859H365.258C365.977 382.625 366.891 381.781 368 381.328C369.109 380.859 370.445 380.625 372.008 380.625C374.445 380.625 376.461 381.39 378.055 382.921C379.648 384.453 380.445 387.25 380.445 391.312V404.296C380.445 405.234 379.977 405.703 379.039 405.703H375.289C374.352 405.703 373.883 405.234 373.883 404.296V393C373.883 389.593 373.648 387.445 373.18 386.554C372.711 385.664 371.703 385.218 370.156 385.218C368.516 385.218 367.281 385.859 366.453 387.14C365.625 388.406 365.211 391.046 365.211 395.062V404.296C365.211 405.234 364.742 405.703 363.805 405.703H360.055ZM385.461 393.398C385.461 389.96 386.203 386.976 387.688 384.445C389.188 381.898 391.773 380.625 395.445 380.625C396.852 380.625 398.055 380.828 399.055 381.234C400.055 381.64 400.961 382.515 401.773 383.859H401.867L401.961 382.5C402.023 381.562 402.445 381.093 403.227 381.093H406.93C407.867 381.093 408.336 381.562 408.336 382.5V405.445C408.336 409.273 407.305 411.914 405.242 413.367C403.18 414.82 400.195 415.546 396.289 415.546C394.633 415.546 393.102 415.46 391.695 415.289C390.289 415.117 388.867 414.687 387.43 414C386.68 413.64 386.555 412.96 387.055 411.96L387.898 410.273C388.242 409.585 388.812 409.429 389.609 409.804C390.25 410.101 391.039 410.367 391.977 410.601C392.93 410.835 394.133 410.953 395.586 410.953C397.586 410.953 399.117 410.578 400.18 409.828C401.242 409.093 401.773 407.476 401.773 404.976V404.578C401.773 403.953 401.805 403.328 401.867 402.703H401.773C400.961 404.046 400.055 404.921 399.055 405.328C398.055 405.734 396.852 405.937 395.445 405.937C391.773 405.937 389.188 404.671 387.688 402.14C386.203 399.593 385.461 396.679 385.461 393.398ZM392.398 393.398C392.398 395.742 392.719 397.656 393.359 399.14C394.016 400.609 395.398 401.343 397.508 401.343C398.68 401.343 399.68 400.687 400.508 399.375C401.352 398.046 401.773 396.328 401.773 394.218V392.343C401.773 390.234 401.352 388.523 400.508 387.21C399.68 385.882 398.68 385.218 397.508 385.218C395.398 385.218 394.016 385.96 393.359 387.445C392.719 388.914 392.398 390.898 392.398 393.398Z" fill="#249BBE"/>
<defs>
<linearGradient id="paint0_linear_2917_10512" x1="461.438" y1="108.71" x2="376.565" y2="105.559" gradientUnits="userSpaceOnUse">
<stop stop-color="#189198"/>
<stop offset="1" stop-color="#17A3B6"/>
</linearGradient>
<linearGradient id="paint1_linear_2917_10512" x1="438.872" y1="155.351" x2="72.0771" y2="150.124" gradientUnits="userSpaceOnUse">
<stop stop-color="#189198"/>
<stop offset="1" stop-color="#17A3B6"/>
</linearGradient>
<linearGradient id="paint2_linear_2917_10512" x1="481.666" y1="231.687" x2="47.6521" y2="224.466" gradientUnits="userSpaceOnUse">
<stop stop-color="#189198"/>
<stop offset="1" stop-color="#17A3B6"/>
</linearGradient>
</defs>
</svg>
